<mxfile host="app.diagrams.net" modified="2022-01-30T21:01:55.755Z" agent="5.0 (Windows NT 10.0; Win64; x64) AppleWebKit/537.36 (KHTML, like Gecko) Chrome/97.0.4692.99 Safari/537.36 Edg/97.0.1072.76" etag="6cat4kOK3UHEtNa8Ugxy" version="16.5.2" type="github">
  <diagram name="Page-1" id="b520641d-4fe3-3701-9064-5fc419738815">
    <mxGraphModel dx="1038" dy="539" grid="1" gridSize="10" guides="1" tooltips="1" connect="1" arrows="1" fold="1" page="1" pageScale="1" pageWidth="1100" pageHeight="850" background="none" math="0" shadow="0">
      <root>
        <mxCell id="0" />
        <mxCell id="1" parent="0" />
        <mxCell id="rCoNAMprZMVAJudMASEk-18" style="edgeStyle=orthogonalEdgeStyle;rounded=0;orthogonalLoop=1;jettySize=auto;html=1;exitX=0.5;exitY=1;exitDx=0;exitDy=0;entryX=0.438;entryY=-0.057;entryDx=0;entryDy=0;entryPerimeter=0;" edge="1" parent="1" source="rCoNAMprZMVAJudMASEk-1" target="rCoNAMprZMVAJudMASEk-5">
          <mxGeometry relative="1" as="geometry" />
        </mxCell>
        <mxCell id="rCoNAMprZMVAJudMASEk-1" value="START" style="ellipse;whiteSpace=wrap;html=1;" vertex="1" parent="1">
          <mxGeometry x="90" y="20" width="120" height="60" as="geometry" />
        </mxCell>
        <mxCell id="rCoNAMprZMVAJudMASEk-40" style="edgeStyle=orthogonalEdgeStyle;rounded=0;orthogonalLoop=1;jettySize=auto;html=1;exitX=0.5;exitY=1;exitDx=0;exitDy=0;" edge="1" parent="1" source="rCoNAMprZMVAJudMASEk-5">
          <mxGeometry relative="1" as="geometry">
            <mxPoint x="155" y="220" as="targetPoint" />
          </mxGeometry>
        </mxCell>
        <mxCell id="rCoNAMprZMVAJudMASEk-5" value="HELLO WORLD" style="rounded=0;whiteSpace=wrap;html=1;" vertex="1" parent="1">
          <mxGeometry x="95" y="120" width="120" height="60" as="geometry" />
        </mxCell>
        <mxCell id="rCoNAMprZMVAJudMASEk-22" style="edgeStyle=orthogonalEdgeStyle;rounded=0;orthogonalLoop=1;jettySize=auto;html=1;exitX=0.5;exitY=1;exitDx=0;exitDy=0;entryX=0.5;entryY=0;entryDx=0;entryDy=0;" edge="1" parent="1" source="rCoNAMprZMVAJudMASEk-6" target="rCoNAMprZMVAJudMASEk-7">
          <mxGeometry relative="1" as="geometry" />
        </mxCell>
        <mxCell id="rCoNAMprZMVAJudMASEk-6" value="INPUT NAME" style="shape=parallelogram;perimeter=parallelogramPerimeter;whiteSpace=wrap;html=1;fixedSize=1;" vertex="1" parent="1">
          <mxGeometry x="90" y="220" width="120" height="60" as="geometry" />
        </mxCell>
        <mxCell id="rCoNAMprZMVAJudMASEk-24" style="edgeStyle=orthogonalEdgeStyle;rounded=0;orthogonalLoop=1;jettySize=auto;html=1;exitX=0.5;exitY=1;exitDx=0;exitDy=0;entryX=0.5;entryY=0;entryDx=0;entryDy=0;" edge="1" parent="1" source="rCoNAMprZMVAJudMASEk-7" target="rCoNAMprZMVAJudMASEk-9">
          <mxGeometry relative="1" as="geometry" />
        </mxCell>
        <mxCell id="rCoNAMprZMVAJudMASEk-7" value="HELLO &quot;NAME&quot;" style="rounded=0;whiteSpace=wrap;html=1;" vertex="1" parent="1">
          <mxGeometry x="90" y="330" width="120" height="60" as="geometry" />
        </mxCell>
        <mxCell id="rCoNAMprZMVAJudMASEk-38" style="edgeStyle=orthogonalEdgeStyle;rounded=0;orthogonalLoop=1;jettySize=auto;html=1;exitX=0.5;exitY=1;exitDx=0;exitDy=0;entryX=0.438;entryY=-0.003;entryDx=0;entryDy=0;entryPerimeter=0;" edge="1" parent="1" source="rCoNAMprZMVAJudMASEk-9" target="rCoNAMprZMVAJudMASEk-10">
          <mxGeometry relative="1" as="geometry" />
        </mxCell>
        <mxCell id="rCoNAMprZMVAJudMASEk-9" value="INPUT = SUM(1)&lt;br&gt;INPUT = PRODUCT (2)" style="shape=parallelogram;perimeter=parallelogramPerimeter;whiteSpace=wrap;html=1;fixedSize=1;" vertex="1" parent="1">
          <mxGeometry x="63.75" y="430" width="172.5" height="70" as="geometry" />
        </mxCell>
        <mxCell id="rCoNAMprZMVAJudMASEk-31" style="edgeStyle=orthogonalEdgeStyle;rounded=0;orthogonalLoop=1;jettySize=auto;html=1;exitX=0.5;exitY=1;exitDx=0;exitDy=0;" edge="1" parent="1" source="rCoNAMprZMVAJudMASEk-10">
          <mxGeometry relative="1" as="geometry">
            <mxPoint x="155" y="650" as="targetPoint" />
          </mxGeometry>
        </mxCell>
        <mxCell id="rCoNAMprZMVAJudMASEk-10" value="SUM + PRODUCT" style="rounded=0;whiteSpace=wrap;html=1;" vertex="1" parent="1">
          <mxGeometry x="95" y="540" width="120" height="60" as="geometry" />
        </mxCell>
        <mxCell id="rCoNAMprZMVAJudMASEk-32" style="edgeStyle=orthogonalEdgeStyle;rounded=0;orthogonalLoop=1;jettySize=auto;html=1;exitX=0.5;exitY=1;exitDx=0;exitDy=0;" edge="1" parent="1" source="rCoNAMprZMVAJudMASEk-11">
          <mxGeometry relative="1" as="geometry">
            <mxPoint x="155" y="750" as="targetPoint" />
          </mxGeometry>
        </mxCell>
        <mxCell id="rCoNAMprZMVAJudMASEk-11" value="OUTPUT/ANSWER" style="shape=parallelogram;perimeter=parallelogramPerimeter;whiteSpace=wrap;html=1;fixedSize=1;" vertex="1" parent="1">
          <mxGeometry x="80" y="650" width="150" height="60" as="geometry" />
        </mxCell>
        <mxCell id="rCoNAMprZMVAJudMASEk-12" value="STOP" style="ellipse;whiteSpace=wrap;html=1;" vertex="1" parent="1">
          <mxGeometry x="82.5" y="750" width="147.5" height="80" as="geometry" />
        </mxCell>
      </root>
    </mxGraphModel>
  </diagram>
</mxfile>
